<?xml version="1.0" standalone="no"?>
<!DOCTYPE svg PUBLIC "-//W3C//DTD SVG 20010904//EN"
 "http://www.w3.org/TR/2001/REC-SVG-20010904/DTD/svg10.dtd">
<svg version="1.0" xmlns="http://www.w3.org/2000/svg"
 width="512.000000pt" height="512.000000pt" viewBox="0 0 512.000000 512.000000"
 preserveAspectRatio="xMidYMid meet">

<g transform="translate(0.000000,512.000000) scale(0.100000,-0.100000)"
fill="currentColor" stroke="none">
<path d="M2180 5114 c-360 -40 -608 -111 -891 -255 -604 -308 -1058 -878
-1218 -1529 -51 -209 -65 -331 -66 -565 0 -212 9 -307 46 -485 123 -601 488
-1137 1010 -1485 59 -40 114 -75 121 -77 18 -6 -28 -64 -139 -176 -105 -105
-133 -151 -140 -232 -15 -158 110 -294 282 -307 190 -16 670 158 944 342 l79
53 394 5 c428 5 495 11 728 68 406 100 792 320 1095 623 189 189 330 386 448
623 117 237 183 448 224 713 24 161 24 502 0 660 -41 266 -107 477 -223 710
-347 699 -1001 1177 -1774 1296 -80 13 -196 17 -495 19 -214 2 -406 1 -425 -1z
m781 -204 c160 -16 310 -48 473 -101 488 -160 893 -481 1171 -929 237 -383
349 -872 304 -1326 -102 -1031 -914 -1841 -1949 -1944 -65 -6 -262 -11 -455
-10 -187 1 -347 1 -356 1 -8 -1 -46 -25 -83 -55 -172 -137 -684 -346 -847
-346 -46 0 -94 22 -109 49 -22 42 -11 63 84 160 167 172 253 297 242 356 -8
41 -19 50 -141 120 -610 350 -999 937 -1080 1632 -58 495 66 1013 343 1428
176 265 365 453 628 625 274 180 627 305 954 339 121 12 698 13 821 1z"/>
<path d="M1660 4144 c-131 -48 -251 -187 -360 -417 -102 -216 -134 -359 -135
-597 0 -189 20 -303 82 -470 66 -178 176 -370 225 -396 64 -33 143 13 142 84
0 25 -11 55 -37 95 -85 133 -159 310 -193 464 -12 55 -17 123 -17 228 0 156
12 234 54 364 l21 63 242 -241 242 -242 -24 -72 c-53 -157 -9 -302 146 -487
44 -52 111 -125 149 -161 257 -250 424 -320 610 -257 l72 24 242 -242 241
-242 -63 -21 c-130 -42 -208 -54 -364 -54 -105 0 -173 5 -228 17 -154 34 -331
108 -464 193 -77 49 -123 51 -164 5 -57 -64 -33 -120 83 -190 170 -102 325
-165 498 -203 136 -30 387 -33 521 -6 328 66 661 263 749 443 34 69 34 180 1
244 -34 66 -483 513 -541 539 -59 27 -159 28 -217 2 -23 -11 -77 -52 -120 -92
-185 -172 -288 -239 -367 -239 -84 0 -200 76 -356 229 -168 167 -250 290 -250
376 0 79 58 171 214 340 54 59 107 126 117 149 26 57 25 157 -2 216 -27 59
-474 508 -539 540 -58 30 -150 36 -210 14z m342 -411 c188 -187 228 -232 228
-255 0 -21 -22 -52 -92 -128 l-93 -100 -254 254 -254 255 49 67 c57 79 124
134 162 134 21 0 73 -47 254 -227z m1532 -1532 c224 -225 229 -230 222 -263
-9 -45 -51 -94 -130 -152 l-67 -49 -255 254 -254 254 100 93 c76 70 107 92
128 92 23 0 68 -41 256 -229z"/>
<path d="M1737 2075 c-33 -34 -40 -72 -19 -115 44 -91 182 -58 182 43 0 58
-38 97 -96 97 -31 0 -48 -6 -67 -25z"/>
</g>
</svg>
