<svg preserveAspectRatio="xMidYMid meet" viewBox="111.89 337.34000000000003 652.97 160.32" xmlns="http://www.w3.org/2000/svg" version="1.0" style="max-height: 500px" width="652.97" height="160.32">

<g stroke="none" fill="#000000" transform="translate(0.000000,835.000000) scale(0.100000,-0.100000)">
<path d="M0 4175 l0 -4175 4175 0 4175 0 0 4175 0 4175 -4175 0 -4175 0 0&#10;-4175z m4641 547 c35 -40 39 -96 10 -172 -44 -115 -99 -148 -158 -95 -27 24&#10;-27 26 -9 36 35 21 97 82 112 110 20 39 18 76 -5 89 -27 14 -126 12 -186 -4&#10;-120 -31 -203 -83 -235 -146 -40 -79 -16 -145 100 -275 119 -133 145 -217 96&#10;-313 -24 -47 -111 -138 -155 -161 -137 -74 -299 -69 -419 11 -109 74 -118 193&#10;-21 290 26 26 55 48 64 48 21 0 95 -38 95 -49 0 -4 -22 -22 -49 -39 -27 -16&#10;-57 -43 -67 -58 -26 -39 -22 -99 7 -130 33 -36 51 -44 121 -55 152 -24 291 51&#10;317 172 17 79 -1 119 -101 227 -103 111 -123 144 -121 206 3 136 172 283 388&#10;335 22 6 73 9 114 8 69 -2 75 -4 102 -35z m-2840 -41 l39 -38 -16 -54 c-47&#10;-157 -263 -500 -451 -715 l-53 -61 62 -6 c35 -3 137 -15 228 -27 198 -26 404&#10;-24 483 5 26 9 51 14 54 11 4 -3 -1 -22 -10 -41 -26 -55 -82 -78 -202 -83&#10;-105 -4 -156 3 -415 58 -80 17 -180 34 -222 37 -43 3 -78 10 -78 14 0 5 6 9&#10;13 9 16 0 55 48 122 150 189 290 333 562 361 685 22 95 22 95 35 95 6 0 29&#10;-17 50 -39z m1272 -52 c42 -19 53 -52 34 -101 -9 -23 -16 -43 -14 -44 1 -1 25&#10;2 52 6 28 5 69 9 93 9 34 1 42 -2 42 -16 0 -38 -16 -46 -101 -49 -45 -1 -92&#10;-5 -104 -8 -16 -4 -43 -50 -107 -183 -48 -98 -93 -200 -102 -226 -57 -171 47&#10;-126 182 78 108 163 191 231 298 242 43 5 55 2 73 -16 45 -45 12 -131 -85&#10;-220 -48 -44 -146 -101 -173 -101 -16 0 -13 -36 4 -70 44 -86 189 -14 289 143&#10;39 61 51 73 61 57 9 -14 -67 -131 -125 -194 -78 -84 -189 -118 -273 -82 -44&#10;18 -67 46 -80 101 l-12 46 -38 -51 c-41 -55 -95 -95 -143 -105 -25 -5 -38 -1&#10;-60 18 -24 21 -27 31 -26 76 0 28 4 62 7 74 5 18 2 17 -17 -8 -49 -64 -131&#10;-144 -159 -155 -42 -18 -89 -2 -112 37 -16 28 -17 39 -8 90 6 32 30 104 53&#10;161 53 130 45 147 -36 78 -109 -93 -161 -185 -181 -319 -8 -53 -29 -62 -60&#10;-27 -14 16 -17 30 -12 72 4 29 9 64 13 78 5 16 -10 3 -39 -36 -75 -101 -144&#10;-143 -240 -144 -144 -1 -197 122 -119 276 62 122 168 209 272 221 44 5 54 3&#10;75 -17 34 -32 32 -70 -8 -133 -47 -73 -108 -124 -194 -164 -79 -37 -83 -43&#10;-47 -100 47 -74 184 -4 281 144 21 32 43 63 50 68 7 6 27 53 46 105 22 62 40&#10;96 51 98 22 5 80 -54 72 -73 -8 -22 -2 -19 62 24 78 53 114 60 147 27 14 -14&#10;25 -34 25 -45 0 -11 -24 -77 -54 -148 -62 -146 -78 -213 -51 -213 42 0 136 93&#10;191 188 10 17 22 32 26 32 10 0 131 240 125 247 -3 2 -28 -7 -55 -21 -36 -18&#10;-53 -22 -58 -14 -9 13 10 27 91 69 66 35 75 47 117 172 21 61 24 63 61 46z&#10;m2075 -268 c2 -20 -4 -42 -18 -61 -12 -17 -17 -30 -11 -30 17 0 145 50 155 60&#10;16 16 35 11 51 -14 15 -23 15 -27 -4 -63 -10 -21 -51 -78 -90 -126 -110 -136&#10;-134 -197 -78 -197 39 0 103 55 157 135 28 41 54 75 59 75 5 0 20 18 35 40 19&#10;29 25 47 20 65 -6 25 26 104 60 148 19 25 54 14 67 -20 7 -20 5 -33 -12 -60&#10;-12 -19 -19 -37 -15 -40 7 -7 144 46 152 59 10 16 34 8 49 -16 15 -22 15 -27&#10;-1 -58 -9 -18 -52 -78 -95 -133 -112 -142 -133 -195 -77 -195 37 0 96 46 143&#10;113 96 134 197 241 258 272 50 24 124 33 162 19 24 -9 45 -58 45 -104 0 -52&#10;-25 -55 -33 -4 -8 47 -23 64 -59 64 -73 0 -149 -73 -203 -193 -36 -82 -42&#10;-132 -20 -157 32 -36 64 -25 131 43 66 68 86 99 103 165 14 51 35 55 75 13 32&#10;-34 32 -37 -9 -148 -40 -105 -23 -129 52 -74 71 51 199 262 227 374 3 15 13&#10;27 20 27 26 0 76 -51 76 -77 0 -24 0 -24 42 11 22 20 61 43 86 53 49 18 63 14&#10;95 -29 19 -25 19 -26 -8 -89 -77 -186 -88 -217 -93 -256 -6 -53 8 -56 66 -13&#10;52 38 111 116 157 208 46 93 92 144 157 172 94 41 176 12 218 -76 59 -121 -22&#10;-318 -161 -390 -48 -24 -140 -16 -175 17 -32 29 -52 67 -62 115 l-7 37 -55&#10;-69 c-87 -108 -166 -138 -221 -83 -33 33 -23 120 29 247 41 100 51 142 33 142&#10;-16 0 -119 -90 -155 -137 -35 -45 -86 -178 -86 -226 0 -12 -5 -29 -10 -37 -8&#10;-13 -13 -13 -37 1 -30 16 -33 35 -20 119 l7 45 -22 -30 c-75 -100 -146 -155&#10;-202 -155 -34 0 -74 40 -83 80 l-6 31 -36 -34 c-20 -19 -47 -41 -61 -51 -31&#10;-20 -103 -21 -135 0 -32 21 -58 88 -49 128 6 28 1 25 -57 -38 -63 -69 -139&#10;-116 -186 -116 -12 0 -35 11 -50 24 -23 20 -28 32 -27 68 1 53 19 89 101 201&#10;35 48 60 87 56 88 -16 2 -68 -2 -85 -7 -9 -3 -34 -32 -55 -64 -21 -33 -42 -60&#10;-48 -60 -5 0 -26 -25 -45 -56 -75 -120 -198 -207 -267 -189 -26 6 -63 59 -63&#10;90 1 35 38 104 104 195 36 48 63 90 60 93 -3 2 -22 1 -42 -4 -46 -10 -40 -9&#10;-51 -9 -5 0 -23 -22 -40 -49 -17 -26 -46 -64 -64 -83 -17 -20 -51 -62 -74 -95&#10;-25 -35 -67 -77 -98 -99 -47 -32 -66 -39 -119 -42 -76 -5 -129 16 -158 62 -28&#10;45 -21 134 16 209 81 166 276 277 353 201 20 -20 24 -31 19 -57 -17 -83 -122&#10;-190 -240 -242 -54 -24 -58 -27 -52 -53 8 -34 50 -72 79 -72 58 0 152 75 220&#10;175 22 33 44 62 49 63 4 2 22 24 39 49 22 32 29 51 25 69 -7 27 9 70 48 133&#10;26 40 28 42 49 28 13 -8 23 -27 25 -46z"/>
<path d="M2089 4261 c-47 -29 -101 -96 -138 -168 -25 -50 -25 -53 -6 -53 53 0&#10;189 111 220 180 15 32 15 42 5 55 -17 21 -30 19 -81 -14z"/>
<path d="M3335 4276 c-45 -19 -118 -99 -148 -160 -44 -90 -35 -96 62 -38 92&#10;54 165 152 147 197 -7 18 -21 18 -61 1z"/>
<path d="M7085 4310 c-4 -6 -5 -28 -4 -50 2 -21 0 -42 -4 -46 -3 -4 -25 10&#10;-48 31 -38 34 -43 36 -57 21 -14 -14 -14 -18 6 -39 12 -13 22 -26 22 -29 0 -3&#10;-21 -11 -47 -18 -26 -6 -53 -16 -60 -22 -22 -18 -14 -30 17 -26 17 3 30 1 30&#10;-2 0 -4 -18 -28 -40 -53 -49 -55 -57 -97 -10 -52 26 25 30 26 30 9 0 -10 -6&#10;-42 -14 -71 -12 -44 -12 -54 0 -63 10 -9 14 -6 19 17 4 15 10 37 15 48 7 19 8&#10;19 18 -5 33 -83 42 -100 58 -100 12 0 15 6 10 25 -20 83 -20 79 0 71 92 -37&#10;102 -40 118 -27 24 20 20 27 -25 40 -50 15 -45 23 44 66 45 22 63 36 65 53 4&#10;27 -1 27 -49 0 -21 -12 -41 -19 -44 -16 -4 3 15 38 40 78 25 40 45 79 43 88&#10;-6 31 -25 21 -52 -28 -15 -28 -32 -48 -37 -45 -5 4 -9 40 -9 81 0 58 -3 74&#10;-14 74 -8 0 -18 -5 -21 -10z m-3 -157 c38 -34 13 -120 -44 -149 -29 -15 -32&#10;-15 -57 4 -18 13 -27 30 -29 56 -3 31 2 42 31 71 38 38 70 44 99 18z"/>
<path d="M4795 4271 c-22 -10 -57 -36 -77 -59 -39 -43 -103 -160 -94 -169 3&#10;-3 26 2 51 11 93 36 216 183 185 221 -15 19 -16 19 -65 -4z"/>
</g>
</svg>