<?xml version="1.0" encoding="utf-8"?>
<svg preserveAspectRatio="xMidYMid meet" viewBox="111.89 337.34000000000003 652.97 160.32" xmlns="http://www.w3.org/2000/svg" version="1.0" style="max-height: 500px" width="652.97" height="160.32">
  <g transform="matrix(1, 0, 0, 1, 6.874069, -144.648819)">
    <g stroke="none" fill="#ffffff" fill-rule="evenodd" transform="matrix(0.1, 0, 0, -0.1, 7.526073, 983.561646)">
      <path d="M4641 4722 c35 -40 39 -96 10 -172 -44 -115 -99 -148 -158 -95 -27 24 -27 26 -9 36 35 21 97 82 112 110 20 39 18 76 -5 89 -27 14 -126 12 -186 -4 -120 -31 -203 -83 -235 -146 -40 -79 -16 -145 100 -275 119 -133 145 -217 96 -313 -24 -47 -111 -138 -155 -161 -137 -74 -299 -69 -419 11 -109 74 -118 193 -21 290 26 26 55 48 64 48 21 0 95 -38 95 -49 0 -4 -22 -22 -49 -39 -27 -16 -57 -43 -67 -58 -26 -39 -22 -99 7 -130 33 -36 51 -44 121 -55 152 -24 291 51 317 172 17 79 -1 119 -101 227 -103 111 -123 144 -121 206 3 136 172 283 388 335 22 6 73 9 114 8 69 -2 75 -4 102 -35z m-2840 -41 l39 -38 -16 -54 c-47 -157 -263 -500 -451 -715 l-53 -61 62 -6 c35 -3 137 -15 228 -27 198 -26 404 -24 483 5 26 9 51 14 54 11 4 -3 -1 -22 -10 -41 -26 -55 -82 -78 -202 -83 -105 -4 -156 3 -415 58 -80 17 -180 34 -222 37 -43 3 -78 10 -78 14 0 5 6 9 13 9 16 0 55 48 122 150 189 290 333 562 361 685 22 95 22 95 35 95 6 0 29 -17 50 -39z m1272 -52 c42 -19 53 -52 34 -101 -9 -23 -16 -43 -14 -44 1 -1 25 2 52 6 28 5 69 9 93 9 34 1 42 -2 42 -16 0 -38 -16 -46 -101 -49 -45 -1 -92 -5 -104 -8 -16 -4 -43 -50 -107 -183 -48 -98 -93 -200 -102 -226 -57 -171 47 -126 182 78 108 163 191 231 298 242 43 5 55 2 73 -16 45 -45 12 -131 -85 -220 -48 -44 -146 -101 -173 -101 -16 0 -13 -36 4 -70 44 -86 189 -14 289 143 39 61 51 73 61 57 9 -14 -67 -131 -125 -194 -78 -84 -189 -118 -273 -82 -44 18 -67 46 -80 101 l-12 46 -38 -51 c-41 -55 -95 -95 -143 -105 -25 -5 -38 -1 -60 18 -24 21 -27 31 -26 76 0 28 4 62 7 74 5 18 2 17 -17 -8 -49 -64 -131 -144 -159 -155 -42 -18 -89 -2 -112 37 -16 28 -17 39 -8 90 6 32 30 104 53 161 53 130 45 147 -36 78 -109 -93 -161 -185 -181 -319 -8 -53 -29 -62 -60 -27 -14 16 -17 30 -12 72 4 29 9 64 13 78 5 16 -10 3 -39 -36 -75 -101 -144 -143 -240 -144 -144 -1 -197 122 -119 276 62 122 168 209 272 221 44 5 54 3 75 -17 34 -32 32 -70 -8 -133 -47 -73 -108 -124 -194 -164 -79 -37 -83 -43 -47 -100 47 -74 184 -4 281 144 21 32 43 63 50 68 7 6 27 53 46 105 22 62 40 96 51 98 22 5 80 -54 72 -73 -8 -22 -2 -19 62 24 78 53 114 60 147 27 14 -14 25 -34 25 -45 0 -11 -24 -77 -54 -148 -62 -146 -78 -213 -51 -213 42 0 136 93 191 188 10 17 22 32 26 32 10 0 131 240 125 247 -3 2 -28 -7 -55 -21 -36 -18 -53 -22 -58 -14 -9 13 10 27 91 69 66 35 75 47 117 172 21 61 24 63 61 46z m2075 -268 c2 -20 -4 -42 -18 -61 -12 -17 -17 -30 -11 -30 17 0 145 50 155 60 16 16 35 11 51 -14 15 -23 15 -27 -4 -63 -10 -21 -51 -78 -90 -126 -110 -136 -134 -197 -78 -197 39 0 103 55 157 135 28 41 54 75 59 75 5 0 20 18 35 40 19 29 25 47 20 65 -6 25 26 104 60 148 19 25 54 14 67 -20 7 -20 5 -33 -12 -60 -12 -19 -19 -37 -15 -40 7 -7 144 46 152 59 10 16 34 8 49 -16 15 -22 15 -27 -1 -58 -9 -18 -52 -78 -95 -133 -112 -142 -133 -195 -77 -195 37 0 96 46 143 113 96 134 197 241 258 272 50 24 124 33 162 19 24 -9 45 -58 45 -104 0 -52 -25 -55 -33 -4 -8 47 -23 64 -59 64 -73 0 -149 -73 -203 -193 -36 -82 -42 -132 -20 -157 32 -36 64 -25 131 43 66 68 86 99 103 165 14 51 35 55 75 13 32 -34 32 -37 -9 -148 -40 -105 -23 -129 52 -74 71 51 199 262 227 374 3 15 13 27 20 27 26 0 76 -51 76 -77 0 -24 0 -24 42 11 22 20 61 43 86 53 49 18 63 14 95 -29 19 -25 19 -26 -8 -89 -77 -186 -88 -217 -93 -256 -6 -53 8 -56 66 -13 52 38 111 116 157 208 46 93 92 144 157 172 94 41 176 12 218 -76 59 -121 -22 -318 -161 -390 -48 -24 -140 -16 -175 17 -32 29 -52 67 -62 115 l-7 37 -55 -69 c-87 -108 -166 -138 -221 -83 -33 33 -23 120 29 247 41 100 51 142 33 142 -16 0 -119 -90 -155 -137 -35 -45 -86 -178 -86 -226 0 -12 -5 -29 -10 -37 -8 -13 -13 -13 -37 1 -30 16 -33 35 -20 119 l7 45 -22 -30 c-75 -100 -146 -155 -202 -155 -34 0 -74 40 -83 80 l-6 31 -36 -34 c-20 -19 -47 -41 -61 -51 -31 -20 -103 -21 -135 0 -32 21 -58 88 -49 128 6 28 1 25 -57 -38 -63 -69 -139 -116 -186 -116 -12 0 -35 11 -50 24 -23 20 -28 32 -27 68 1 53 19 89 101 201 35 48 60 87 56 88 -16 2 -68 -2 -85 -7 -9 -3 -34 -32 -55 -64 -21 -33 -42 -60 -48 -60 -5 0 -26 -25 -45 -56 -75 -120 -198 -207 -267 -189 -26 6 -63 59 -63 90 1 35 38 104 104 195 36 48 63 90 60 93 -3 2 -22 1 -42 -4 -46 -10 -40 -9 -51 -9 -5 0 -23 -22 -40 -49 -17 -26 -46 -64 -64 -83 -17 -20 -51 -62 -74 -95 -25 -35 -67 -77 -98 -99 -47 -32 -66 -39 -119 -42 -76 -5 -129 16 -158 62 -28 45 -21 134 16 209 81 166 276 277 353 201 20 -20 24 -31 19 -57 -17 -83 -122 -190 -240 -242 -54 -24 -58 -27 -52 -53 8 -34 50 -72 79 -72 58 0 152 75 220 175 22 33 44 62 49 63 4 2 22 24 39 49 22 32 29 51 25 69 -7 27 9 70 48 133 26 40 28 42 49 28 13 -8 23 -27 25 -46z" style=""/>
    </g>
    <path d="M 213.312 556.996 C 208.577 559.927 203.138 566.696 199.412 573.972 C 196.894 579.024 196.894 579.328 198.808 579.328 C 204.146 579.328 217.842 568.111 220.965 561.139 C 222.475 557.904 222.475 556.893 221.469 555.581 C 219.757 553.459 218.446 553.661 213.312 556.996 Z M 338.799 555.479 C 334.267 557.4 326.917 565.484 323.893 571.648 C 319.463 580.743 320.37 581.349 330.138 575.488 C 339.405 570.031 346.756 560.129 344.943 555.581 C 344.238 553.763 342.828 553.763 338.799 555.479 Z M 716.475 552.044 C 716.071 552.652 715.97 554.873 716.071 557.097 C 716.271 559.219 716.071 561.341 715.667 561.744 C 715.366 562.149 713.151 560.735 710.834 558.613 C 707.008 555.177 706.504 554.975 705.094 556.491 C 703.684 557.904 703.684 558.309 705.698 560.432 C 706.908 561.744 707.914 563.059 707.914 563.363 C 707.914 563.665 705.8 564.473 703.18 565.18 C 700.562 565.788 697.844 566.797 697.137 567.404 C 694.922 569.223 695.728 570.435 698.852 570.031 C 700.562 569.729 701.872 569.931 701.872 570.233 C 701.872 570.637 700.058 573.063 697.844 575.589 C 692.908 581.147 692.102 585.391 696.836 580.844 C 699.454 578.317 699.857 578.216 699.857 579.935 C 699.857 580.945 699.253 584.177 698.446 587.109 C 697.238 591.556 697.238 592.565 698.446 593.476 C 699.454 594.384 699.857 594.081 700.36 591.757 C 700.762 590.241 701.366 588.017 701.872 586.907 C 702.576 584.987 702.677 584.987 703.684 587.412 C 707.008 595.799 707.914 597.517 709.525 597.517 C 710.733 597.517 711.035 596.912 710.531 594.991 C 708.518 586.604 708.518 587.008 710.531 587.816 C 719.798 591.556 720.805 591.857 722.417 590.545 C 724.834 588.524 724.43 587.816 719.898 586.501 C 714.865 584.987 715.366 584.177 724.33 579.835 C 728.863 577.611 730.675 576.196 730.875 574.479 C 731.279 571.749 730.777 571.749 725.942 574.479 C 723.826 575.691 721.813 576.396 721.51 576.095 C 721.107 575.791 723.021 572.255 725.539 568.213 C 728.055 564.169 730.071 560.229 729.869 559.319 C 729.266 556.188 727.353 557.197 724.633 562.149 C 723.122 564.979 721.41 567 720.905 566.696 C 720.403 566.293 719.999 562.655 719.999 558.512 C 719.999 552.652 719.697 551.033 718.59 551.033 C 717.783 551.033 716.778 551.539 716.475 552.044 Z M 716.174 567.909 C 719.999 571.345 717.482 580.035 711.741 582.965 C 708.821 584.481 708.518 584.481 706 582.561 C 704.188 581.247 703.281 579.531 703.081 576.903 C 702.778 573.771 703.281 572.66 706.202 569.729 C 710.03 565.888 713.251 565.281 716.174 567.909 Z M 485.841 555.985 C 483.625 556.996 480.1 559.623 478.087 561.947 C 474.159 566.293 467.713 578.115 468.62 579.024 C 468.921 579.328 471.237 578.823 473.756 577.913 C 483.121 574.275 495.508 559.42 492.387 555.581 C 490.876 553.661 490.776 553.661 485.841 555.985 Z" style="fill-rule: nonzero; stroke-width: 0.133;" stroke="none"/>
  </g>
</svg>